<svg width="128" height="128" viewBox="0 0 128 128" xmlns="http://www.w3.org/2000/svg">
  <defs>
    <linearGradient id="g1" x1="0" x2="1" y1="0" y2="1">
      <stop offset="0%" stop-color="#FF8A00"/>
      <stop offset="100%" stop-color="#FF3D68"/>
    </linearGradient>
    <linearGradient id="g2" x1="0" x2="1" y1="1" y2="0">
      <stop offset="0%" stop-color="#FFD7A2"/>
      <stop offset="100%" stop-color="#FFC0CC"/>
    </linearGradient>
    <filter id="shadow" x="-20%" y="-20%" width="140%" height="140%">
      <feDropShadow dx="0" dy="4" stdDeviation="4" flood-color="#ff9f6a" flood-opacity="0.35"/>
    </filter>
  </defs>
  <rect x="12" y="60" width="104" height="52" rx="10" fill="#fff" stroke="url(#g1)" stroke-width="4" filter="url(#shadow)"/>
  <path d="M64 18 L16 52 L24 52 L24 60 L104 60 L104 52 L112 52 Z" fill="url(#g1)" opacity="0.25"/>
  <path d="M64 30 L28 56 L28 108 L100 108 L100 56 Z" fill="#fff" stroke="url(#g1)" stroke-width="3"/>
  <path d="M64 48 C54 36 36 40 32 56 C30 64 36 76 64 92 C92 76 98 64 96 56 C92 40 74 36 64 48 Z" fill="url(#g2)" stroke="url(#g1)" stroke-width="2"/>
  <circle cx="64" cy="18" r="6" fill="url(#g1)"/>
</svg>